<svg version="1.2" baseProfile="tiny" id="Layer_1" xmlns:v="https://vecta.io/nano"
	 xmlns="http://www.w3.org/2000/svg" xmlns:xlink="http://www.w3.org/1999/xlink" x="0px" y="0px" viewBox="0 0 109.1 38"
	 overflow="visible" xml:space="preserve">
<path fill="#2B2B2B" d="M70.4,4.5l-0.1,4.3c0,0-0.5-0.2-1.1-0.5c-1.6-0.8-3.4-1.1-5.7-1c-3.2,0.1-5.6,1.2-7.9,3.4
	c-5.9,5.8-4.3,15.7,3.2,19.4c2,1,3.5,1.3,5.9,1.1c2.4-0.1,3.9-0.5,5.7-1.6l1.3-0.8l0.5,0.5c0.7,0.6,2.1,1.2,3.2,1.4l0.9,0.1V0.3
	h-5.9L70.4,4.5L70.4,4.5z M66.9,14c2.1,1.1,3.3,3,3.3,5.4c0,1.2-0.1,1.6-0.6,2.6c-1.1,2.2-3,3.4-5.5,3.4c-1.2,0-1.7-0.1-2.5-0.5
	c-3.9-1.8-4.8-6.8-1.8-9.8C61.8,13.2,64.5,12.7,66.9,14L66.9,14L66.9,14z M79.1,12.4c0,12.9,0.1,13.7,0.9,15.4
	c0.5,1.1,2.2,2.6,3.4,3c1.8,0.7,5.3,0.9,8.2,0.6l1.1-0.1v-5.9H90c-2.5,0-2.9,0-3.4-0.4c-1.2-0.7-1.3-1.3-1.4-6l-0.1-4.3l7.2,0.1V8.8
	h-7.2V0.3h-6.1L79.1,12.4L79.1,12.4z M9.6,7.6C6.3,8.4,3,11,1.6,14c-0.4,0.9-0.9,2-1,2.6c-0.3,1.3-0.3,4.2,0,5.6
	c0.4,1.7,1.6,3.9,2.8,5.2l1.1,1.2l-1.1,1.2c-1.7,1.8-2.7,4.2-3,6.9l-0.1,1.1h6.1v-0.6c0-1.7,1.6-4,3.5-4.9c1.4-0.7,3.7-0.7,5.1-0.1
	c1.8,0.9,3.3,2.8,3.6,4.7l0.1,0.9h6.1l-0.1-1.2c-0.3-2.6-1.5-5.3-3.3-7.2l-0.8-0.9l0.7-0.6c1.1-1,2.4-3.3,3-4.9l0.5-1.5l0.1-14H24
	c-1.1,0-2.7,0.7-3.5,1.5c-0.6,0.6-0.7,0.7-1,0.4c-0.6-0.5-2.9-1.5-4-1.8C14.1,7.3,11,7.2,9.6,7.6L9.6,7.6z M15.2,13.9
	c1.3,0.6,2.6,2,3.1,3.4c0.5,1.3,0.4,3.2-0.1,4.5c-0.6,1.2-1.8,2.5-3,3.1c-0.9,0.4-1.3,0.5-2.6,0.5s-1.7-0.1-2.6-0.5
	c-4.3-2.1-4.6-8.2-0.6-10.7C11,13.1,13.4,13,15.2,13.9L15.2,13.9z M35.8,7.9c-2.8,0.7-5.6,2.8-7.2,5.1c-4.5,7-0.9,16.4,7.1,18.4
	c1.7,0.4,4.3,0.5,5.9,0.1c3.4-0.9,6.5-3.4,8-6.4c1.7-3.6,1.7-7.3,0-10.8c-1.5-3-4.7-5.7-7.9-6.4C40.2,7.5,37.2,7.5,35.8,7.9
	L35.8,7.9z M41.2,14.1c1.1,0.5,2.5,1.8,3.1,2.9c0.4,0.8,0.5,1.2,0.5,2.7c0,1.5-0.1,1.9-0.5,2.7c-0.6,1.1-1.9,2.4-3,2.9
	c-3,1.3-6.7-0.1-8.1-3.2c-0.6-1.2-0.5-3.7,0-4.9c0.8-1.7,2.4-3.1,4.2-3.5C38.3,13.5,40.3,13.7,41.2,14.1L41.2,14.1L41.2,14.1z
	 M98.1,0.4C96,0.9,94.7,2.9,95,4.9c0.2,1.2,0.4,1.5,2.9,3.9l4,3.9l3-2.9l3.3-3.3c1.1-1.5,0.9-3.6-0.5-5c-1.4-1.5-3.9-1.6-5.5-0.4
	L102,1.3L101.5,1c-0.3-0.2-0.7-0.4-1-0.5C99.8,0.3,98.7,0.2,98.1,0.4L98.1,0.4z M100,2c0.2,0.1,0.4,0.3,0.6,0.5l0.3,0.3l-0.6,0.6
	C100,3.7,99.7,4,99.6,3.9c-0.1-0.1-1.8-1.9-1.7-1.9C98.2,1.7,99.4,1.7,100,2L100,2z M105.6,1.8c0.2,0.1,0.3,0.2,0.3,0.2
	c0,0.1-1.7,1.9-1.8,1.9c0,0-0.3-0.3-0.6-0.6c-0.5-0.6-0.6-0.6-0.5-0.8c0.2-0.2,0.8-0.6,1-0.7C104.4,1.7,105.3,1.7,105.6,1.8
	L105.6,1.8z M98.6,4.9c0,0-0.2,0.3-0.6,0.6l-0.6,0.6l-0.3-0.3c-0.6-0.6-0.9-1.6-0.5-2.3l0.2-0.3l0.9,0.9L98.6,4.9L98.6,4.9z
	 M107.3,3.7c0.1,0.5,0.1,1-0.1,1.5c-0.1,0.3-0.7,1-0.8,1c0,0-0.3-0.3-0.7-0.6L105.2,5l0.9-0.9l1-0.9C107.2,3.2,107.3,3.4,107.3,3.7
	L107.3,3.7L107.3,3.7z M102.5,4.5L103,5l-0.5,0.6l-0.6,0.6l-0.6-0.5c-0.3-0.3-0.6-0.5-0.6-0.6c0-0.1,1-1.1,1.1-1.1
	C101.9,3.9,102.2,4.2,102.5,4.5L102.5,4.5z M100.3,7.8c-0.3,0.3-0.5,0.5-0.6,0.5c0,0-0.3-0.2-0.6-0.5l-0.5-0.5l0.5-0.6l0.5-0.6
	l0.6,0.6l0.6,0.6L100.3,7.8L100.3,7.8z M105.2,7.3c0,0.1-0.3,0.3-0.6,0.6l-0.5,0.5L103,7.3l0.6-0.6l0.6-0.6l0.5,0.5
	C105.2,7.1,105.3,7.2,105.2,7.3L105.2,7.3z M102.6,9l0.4,0.4l-0.5,0.6c-0.3,0.3-0.6,0.6-0.6,0.6c0,0-0.3-0.2-0.6-0.6l-0.5-0.6
	l0.5-0.6C102,8.2,101.8,8.2,102.6,9L102.6,9z"/>
</svg>
