<?xml version="1.0" encoding="utf-8"?>
<svg version="1.1" id="Layer_1" xmlns="http://www.w3.org/2000/svg" xmlns:xlink="http://www.w3.org/1999/xlink" x="0px" y="0px" viewBox="0 0 50.962 10.163" style="enable-background:new 0 0 50.962 10.163;" xml:space="preserve" aria-hidden="true">
	<g>
		<path style="fill:#FFFFFF;" d="M48.533,10.141H30.229c0,0-2.218,0.127-2.218-1.859V2.22c0-2.355,2.218-2.218,2.218-2.218h18.494
		c2.271,0,2.229,2.229,2.229,2.229V2.6h-7.225V2.199c0,0-0.085-1.035-1.32-1.035h-5.598c-1.521,0-1.479,1.268-1.479,1.268v5.123
		c0,0-0.169,1.458,1.384,1.458h5.651c1.278,0,1.405-1.257,1.405-1.257V5.843h-4.109V4.66h11.302v3.338
		C50.952,7.997,50.952,10.141,48.533,10.141z" />
		<polyline style="fill:#FFFFFF;" points="8.703,10.163 0,0.002 8.967,0.002 13.509,6.857 18.399,0.002 27.272,0.002 18.463,10.163
		8.703,10.163 	" />
	</g>
</svg>
