<svg class="_logo_12739_98" fill="none" height="24" viewbox="0 0 120 24" width="120" xmlns="http://www.w3.org/2000/svg"><path d="M120 20C120 22.2091 118.209 24 116 24H70C67.7909 24 66 22.2091 66 20V4C66 1.79086 67.7909 0 70 0H116C118.209 0 120 1.79086 120 4V6H103.2C103.2 5.7188 103.2 5.45131 103.2 5.19954C103.2 3.87406 102.125 2.8 100.8 2.8H85.2C83.8745 2.8 82.8 3.87452 82.8 5.2V18.8C82.8 20.1255 83.8745 21.2 85.2 21.2H100.8C102.125 21.2 103.2 20.1255 103.2 18.8V13.6H93V10.8H120V20Z" fill="currentColor"></path><path d="M21 24L0 0H20L32 14.6L44 0H64L43 24H21Z" fill="currentColor"></path></svg>